<?xml version="1.0" encoding="UTF-8"?>
<svg xmlns="http://www.w3.org/2000/svg"
     version="1.2"
     baseProfile="tiny"
     viewBox="0 0 1000 1000">

    <title>VR-BIMI-FullColor</title>
    <g id="VR-BIMI-FullColor" stroke="none" stroke-width="1" fill="none" fill-rule="evenodd" transform="translate(0.000000, 0.000000)">
        <rect fill="#FFFFFF" x="0" y="0" width="1000" height="1000"></rect>
        <g id="VR-Logo" transform="translate(100.000000, 100.000000)">
            <rect id="Mask" fill="#272425" fill-rule="nonzero" x="30.1439649" y="30.1439649" width="739.547156" height="739.547156" rx="366.075842"></rect>
            <path d="M399.917543,4.12286127 L399.917543,56.1650685 C210.068293,56.1650685 56.1650685,210.068293 56.1650685,399.917543 L4.12286127,399.917543 C4.12286127,181.326176 181.326176,4.12286127 399.917543,4.12286127 Z" id="Oval" fill="#31B2CC" fill-rule="nonzero"></path>
            <path d="M795.712224,4.12286127 L795.712224,56.1650685 C605.862974,56.1650685 451.959749,210.068293 451.959749,399.917543 L399.917543,399.917543 C399.917543,181.326176 577.120858,4.12286127 795.712224,4.12286127 Z" id="Oval" fill="#CC31B1" fill-rule="nonzero" transform="translate(597.814884, 202.020202) scale(-1, 1) translate(-597.814884, -202.020202) "></path>
            <path d="M399.917543,399.917543 L399.917543,451.959749 C210.068293,451.959749 56.1650685,605.862974 56.1650685,795.712224 L4.12286127,795.712224 C4.12286127,577.120858 181.326176,399.917543 399.917543,399.917543 Z" id="Oval" fill="#FFFFFF" fill-rule="nonzero" transform="translate(202.020202, 597.814884) scale(-1, 1) rotate(-180.000000) translate(-202.020202, -597.814884) "></path>
            <path d="M795.712224,399.917543 L795.712224,451.959749 C605.862974,451.959749 451.959749,605.862974 451.959749,795.712224 L399.917543,795.712224 C399.917543,577.120858 577.120858,399.917543 795.712224,399.917543 Z" id="Oval" fill="#B2CC32" fill-rule="nonzero" transform="translate(597.814884, 597.814884) rotate(180.000000) translate(-597.814884, -597.814884) "></path>
            <path d="M470.220487,500.04424 L454.767904,586.509253 L427.161606,586.509253 L442.266939,500.04424 L470.220487,500.04424 Z M328.369252,475.042309 L324.375888,497.960745 L342.780088,497.960745 L338.960348,518.969313 L321.077022,518.969313 L314.82654,552.826094 C314.71079,553.636342 314.623977,554.475528 314.566102,555.34365 C314.508228,556.211773 314.479291,556.935208 314.479291,557.513958 C314.479291,560.407698 315.289539,562.375444 316.910034,563.417191 C318.53053,564.458937 320.729773,564.979811 323.507765,564.979811 C324.896762,564.979811 326.256821,564.864061 327.587941,564.632562 C328.919063,564.401064 330.105497,564.169563 331.147244,563.938065 L328.542877,583.904884 C326.922381,584.599383 324.636326,585.207068 321.684708,585.727942 C318.733091,586.248815 315.926161,586.509253 313.263919,586.509253 C304.929941,586.509253 298.361148,584.830882 293.557535,581.474141 C288.753923,578.117401 286.352117,572.792915 286.352117,565.500685 C286.352117,564.111688 286.43893,562.52013 286.612555,560.726011 C286.786179,558.93189 287.046616,557.224582 287.393865,555.604087 L293.991596,518.969313 L279.754386,518.969313 L283.574125,497.960745 L297.290462,497.960745 L301.283826,475.042309 L328.369252,475.042309 Z M385.925782,495.356377 C391.134517,495.356377 395.938129,495.906188 400.336617,497.00581 C404.735105,498.105433 408.525907,499.81274 411.709023,502.127734 C414.892139,504.442728 417.409695,507.33647 419.26169,510.80896 C421.113685,514.281451 422.039682,518.448439 422.039682,523.309925 C422.039682,524.930421 421.952871,526.666667 421.779246,528.518661 C421.60562,530.370657 421.345184,532.164776 420.997935,533.901022 L415.094702,567.58418 C414.515953,570.593671 414.081892,573.661038 413.792518,576.786279 C413.503144,579.91152 413.358456,582.458014 413.358456,584.425758 L388.703774,584.425758 C388.703774,583.152511 388.761649,581.676703 388.877398,579.998333 C388.993148,578.319962 389.166773,576.728404 389.398272,575.223659 L389.051023,575.223659 C382.684791,582.747387 373.887815,586.509253 362.660095,586.509253 C359.650604,586.509253 356.554301,586.133066 353.371183,585.380693 C350.188067,584.628319 347.294324,583.355074 344.689958,581.560953 C342.085589,579.766834 339.973159,577.393964 338.352663,574.442348 C336.732167,571.490731 335.92192,567.873553 335.92192,563.590816 C335.92192,556.645835 337.658164,550.9741 341.130655,546.575612 C344.603145,542.177125 349.14632,538.762508 354.76018,536.331765 C360.374039,533.901022 366.740271,532.222651 373.858878,531.296655 C380.977483,530.370657 388.125025,529.907658 395.301506,529.907658 C395.533005,528.865911 395.648755,528.055664 395.648755,527.476914 L395.648755,525.914294 C395.648755,522.557553 394.462321,520.097872 392.089453,518.535251 C389.716583,516.972631 386.388781,516.191321 382.106042,516.191321 C378.170553,516.191321 374.206127,516.943693 370.212763,518.448439 C366.219399,519.953186 362.602221,521.92093 359.36123,524.351673 L347.902011,508.378216 C353.110747,504.211229 359.100792,500.999175 365.872148,498.742056 C372.643506,496.484938 379.328049,495.356377 385.925782,495.356377 Z M238.171313,494.835504 C243.843048,494.835504 249.022846,495.645752 253.710707,497.266248 C258.39857,498.886743 262.420872,501.230674 265.777611,504.29804 C269.134353,507.365408 271.738719,511.156209 273.590715,515.670447 C275.44271,520.184684 276.368707,525.39342 276.368707,531.296655 C276.368707,533.380148 276.166146,536.013454 275.761022,539.19657 C275.355899,542.379686 274.806087,545.360241 274.111589,548.138233 L212.127634,548.138233 C212.011884,548.601232 211.954009,549.122104 211.954009,549.700853 C211.954009,552.131597 212.50382,554.301904 213.603442,556.211773 C214.703065,558.121643 216.149935,559.742138 217.944056,561.07326 C219.738175,562.404382 221.763795,563.417191 224.020914,564.111688 C226.278033,564.806188 228.621963,565.153436 231.052707,565.153436 C235.451194,565.153436 239.32881,564.343189 242.685549,562.722693 C246.042291,561.102197 249.051783,558.902953 251.714025,556.124961 L269.250103,569.841298 C263.694117,575.744531 257.50151,579.998333 250.672279,582.6027 C243.843048,585.207068 236.492942,586.509253 228.621963,586.509253 C222.60298,586.509253 217.018058,585.670067 211.867198,583.991697 C206.716336,582.313326 202.231037,579.824707 198.411297,576.525843 C194.591556,573.226977 191.582066,569.1468 189.382821,564.285314 C187.183578,559.423827 186.083956,553.867843 186.083956,547.617359 C186.083956,540.209379 187.386139,533.293337 189.990508,526.869228 C190.52585,525.548718 191.102763,524.263665 191.721248,523.014071 L192.247626,523.136302 C190.974379,522.789053 189.759007,522.557553 188.601511,522.441803 C187.444014,522.326054 186.344392,522.268179 185.302644,522.268179 C181.251405,522.268179 177.836791,522.962677 175.058799,524.351673 C172.280806,525.740669 169.994749,527.447977 168.20063,529.473596 C166.40651,531.499216 165.075388,533.669523 164.207266,535.984516 C163.339143,538.299509 162.731457,540.325129 162.384208,542.061375 L154.571105,586.509253 L126.791181,586.509253 L139.118522,517.927566 C139.581521,515.728322 140.073457,512.892454 140.59433,509.419965 C141.115204,505.947473 141.49139,502.822232 141.72289,500.04424 L168.113817,500.04424 C168.113817,500.622987 168.055943,501.462173 167.940193,502.561796 C167.824443,503.661417 167.679756,504.818914 167.506132,506.034286 C167.332507,507.249657 167.158883,508.465029 166.985258,509.680401 C166.811633,510.895772 166.666946,511.908583 166.551197,512.718831 L166.898446,512.718831 C169.676438,508.320341 173.004242,504.732101 176.881855,501.954109 C180.759471,499.176117 185.418395,497.78712 190.85863,497.78712 C191.900377,497.78712 192.971061,497.844995 194.070684,497.960745 C195.170306,498.076496 196.067366,498.250119 196.761864,498.481619 L192.520422,521.462301 C194.771712,517.258639 197.516647,513.476026 200.755227,510.114462 C205.32734,505.368726 210.796512,501.635798 217.162746,498.915681 C223.528978,496.195562 230.531833,494.835504 238.171313,494.835504 Z M522.915531,455.249113 L499.649844,586.509253 L471.522672,586.509253 L494.614733,455.249113 L522.915531,455.249113 Z M570.054588,494.835504 C575.726323,494.835504 580.906121,495.645752 585.593982,497.266248 C590.281845,498.886743 594.304147,501.230674 597.660888,504.29804 C601.017628,507.365408 603.621996,511.156209 605.473991,515.670447 C607.325986,520.184684 608.251983,525.39342 608.251983,531.296655 C608.251983,533.380148 608.049422,536.013454 607.644298,539.19657 C607.239174,542.379686 606.689362,545.360241 605.994865,548.138233 L544.010909,548.138233 C543.895161,548.601232 543.837286,549.122104 543.837286,549.700853 C543.837286,552.131597 544.387095,554.301904 545.486719,556.211773 C546.58634,558.121643 548.03321,559.742138 549.827331,561.07326 C551.621452,562.404382 553.647072,563.417191 555.90419,564.111688 C558.161308,564.806188 560.50524,565.153436 562.935984,565.153436 C567.334471,565.153436 571.212085,564.343189 574.568826,562.722693 C577.925566,561.102197 580.935058,558.902953 583.5973,556.124961 L601.133378,569.841298 C595.577394,575.744531 589.384785,579.998333 582.555554,582.6027 C575.726323,585.207068 568.376218,586.509253 560.50524,586.509253 C554.486255,586.509253 548.901333,585.670067 543.750473,583.991697 C538.599612,582.313326 534.114312,579.824707 530.294572,576.525843 C526.474833,573.226977 523.465341,569.1468 521.266098,564.285314 C519.066853,559.423827 517.967231,553.867843 517.967231,547.617359 C517.967231,540.209379 519.269416,533.293337 521.873783,526.869228 C524.478151,520.445121 528.066391,514.860199 532.638504,510.114462 C537.210616,505.368726 542.679789,501.635798 549.046021,498.915681 C555.412253,496.195562 562.415109,494.835504 570.054588,494.835504 Z M393.738884,546.575612 L391.308141,546.575612 C387.835651,546.575612 384.305286,546.720298 380.717046,547.009674 C377.128806,547.299048 373.916753,547.906733 371.080886,548.832731 C368.245018,549.758729 365.901086,551.031975 364.049092,552.652471 C362.197098,554.272966 361.2711,556.414334 361.2711,559.076578 C361.2711,562.549068 362.457534,564.892999 364.830402,566.10837 C367.20327,567.323742 369.836576,567.931429 372.730317,567.931429 C378.054803,567.931429 382.511166,566.281995 386.099405,562.983129 C389.687645,559.684263 391.944765,555.604087 392.870763,550.7426 L393.738884,546.575612 Z M235.914193,514.281451 C232.788952,514.281451 229.982023,514.831261 227.493404,515.930884 C225.004786,517.030506 222.83448,518.390564 220.982484,520.011059 C219.13049,521.631555 217.625743,523.425676 216.468247,525.39342 C215.31075,527.361164 214.500502,529.271035 214.037503,531.123029 L251.5404,531.123029 C251.65615,530.54428 251.714025,529.965533 251.714025,529.386784 L251.714025,527.65054 C251.714025,523.830799 250.353966,520.647683 247.633849,518.10119 C244.913732,515.554696 241.00718,514.281451 235.914193,514.281451 Z M567.79747,514.281451 C564.672228,514.281451 561.865298,514.831261 559.376679,515.930884 C556.888063,517.030506 554.717756,518.390564 552.865761,520.011059 C551.013765,521.631555 549.50902,523.425676 548.351523,525.39342 C547.194027,527.361164 546.383779,529.271035 545.92078,531.123029 L583.423677,531.123029 C583.539427,530.54428 583.5973,529.965533 583.5973,529.386784 L583.5973,527.65054 C583.5973,523.830799 582.237243,520.647683 579.517126,518.10119 C576.797007,515.554696 572.890456,514.281451 567.79747,514.281451 Z M461.365637,457.158982 C465.648374,457.158982 469.178741,458.490104 471.956733,461.152346 C474.734725,463.81459 476.12372,467.113455 476.12372,471.048945 C476.12372,473.363938 475.718597,475.505308 474.90835,477.473052 C474.098103,479.440797 472.969542,481.20598 471.522672,482.7686 C470.0758,484.331221 468.368493,485.546592 466.400749,486.414715 C464.433003,487.282837 462.291635,487.716898 459.97664,487.716898 C455.578152,487.716898 451.960975,486.414715 449.125107,483.810347 C446.28924,481.20598 444.871307,477.878176 444.871307,473.826937 C444.871307,469.081201 446.462865,465.116773 449.645981,461.933657 C452.829098,458.750541 456.735649,457.158982 461.365637,457.158982 Z M156.133725,380.414099 L163.252331,437.189318 L163.773204,437.189318 L193.810246,380.414099 L224.020914,380.414099 L172.975304,466.879111 L142.764637,466.879111 L126.791181,380.414099 L156.133725,380.414099 Z M256.749137,380.414099 L241.296554,466.879111 L213.690254,466.879111 L228.795589,380.414099 L256.749137,380.414099 Z M321.771521,378.15698 C322.813267,378.15698 323.883951,378.214855 324.983575,378.330604 C326.083196,378.446354 326.980256,378.619979 327.674754,378.851478 L323.160516,403.50616 C321.887269,403.158912 320.671898,402.927413 319.514401,402.811663 C318.356905,402.695913 317.257283,402.638038 316.215535,402.638038 C312.164296,402.638038 308.749681,403.332537 305.971689,404.721532 C303.193697,406.110529 300.90764,407.817835 299.113521,409.843455 C297.3194,411.869074 295.988278,414.039382 295.120157,416.354375 C294.252034,418.66937 293.644347,420.694989 293.297098,422.431233 L285.483994,466.879111 L257.704071,466.879111 L270.031413,398.297425 C270.494412,396.09818 270.986347,393.262313 271.507221,389.789823 C272.028095,386.317333 272.404281,383.192091 272.63578,380.414099 L299.026708,380.414099 C299.026708,380.992848 298.968833,381.832033 298.853083,382.931655 C298.737334,384.031276 298.592646,385.188773 298.419021,386.404144 C298.245398,387.619516 298.071772,388.834888 297.898149,390.050259 C297.724524,391.265631 297.579838,392.278442 297.464087,393.088689 L297.811336,393.088689 C300.589328,388.690202 303.917132,385.101962 307.794746,382.323969 C311.672361,379.545976 316.331285,378.15698 321.771521,378.15698 Z M364.743589,375.726237 C369.952325,375.726237 374.755937,376.276049 379.154426,377.37567 C383.552914,378.475292 387.343715,380.1826 390.526831,382.497593 C393.709948,384.812586 396.227503,387.706329 398.079499,391.17882 C399.931493,394.65131 400.857491,398.818299 400.857491,403.679786 C400.857491,405.300281 400.770678,407.036525 400.597053,408.888521 C400.423429,410.740515 400.162993,412.534636 399.815743,414.27088 L393.91251,447.954038 C393.33376,450.963531 392.899701,454.030897 392.610325,457.156138 C392.320952,460.28138 392.176264,462.827872 392.176264,464.795617 L367.521582,464.795617 C367.521582,463.522371 367.579457,462.046562 367.695207,460.368191 C367.810957,458.689822 367.98458,457.098263 368.216081,455.593517 L367.86883,455.593517 C361.502598,463.117248 352.705623,466.879111 341.477904,466.879111 C338.468411,466.879111 335.372108,466.502925 332.188992,465.750552 C329.005876,464.998179 326.112134,463.724933 323.507765,461.930812 C320.903398,460.136693 318.790966,457.763824 317.17047,454.812207 C315.549975,451.86059 314.739727,448.243412 314.739727,443.960675 C314.739727,437.015693 316.475973,431.343959 319.948463,426.945471 C323.420954,422.546983 327.964128,419.132367 333.577987,416.701624 C339.191847,414.27088 345.55808,412.592511 352.676685,411.666513 C359.79529,410.740515 366.942834,410.277516 374.119314,410.277516 C374.350813,409.23577 374.466563,408.425522 374.466563,407.846773 L374.466563,406.284153 C374.466563,402.927413 373.280129,400.467732 370.90726,398.905112 C368.534392,397.342489 365.206588,396.561179 360.923851,396.561179 C356.98836,396.561179 353.023934,397.313552 349.03057,398.818299 C345.037206,400.323044 341.420029,402.290789 338.179038,404.721532 L326.719819,388.748077 C331.928554,384.581088 337.918602,381.369034 344.689958,379.111916 C351.461314,376.854796 358.145859,375.726237 364.743589,375.726237 Z M457.198648,335.618972 L433.932962,466.879111 L405.80579,466.879111 L428.89785,335.618972 L457.198648,335.618972 Z M372.556693,426.945471 L370.12595,426.945471 C366.65346,426.945471 363.123094,427.090159 359.534854,427.379532 C355.946614,427.668906 352.73456,428.276593 349.898693,429.202591 C347.062826,430.128587 344.718895,431.401834 342.866899,433.022329 C341.014905,434.642825 340.088907,436.784195 340.088907,439.446437 C340.088907,442.918928 341.275341,445.262859 343.648209,446.47823 C346.021079,447.693602 348.654384,448.301287 351.548126,448.301287 C356.872612,448.301287 361.328975,446.651854 364.917215,443.352988 C368.505455,440.054123 370.762573,435.973947 371.688571,431.11246 L372.556693,426.945471 Z M247.894287,337.528841 C252.177024,337.528841 255.707389,338.859963 258.485381,341.522207 C261.263373,344.184449 262.65237,347.483315 262.65237,351.418804 C262.65237,353.733797 262.247246,355.875166 261.436999,357.842911 C260.626751,359.810655 259.498192,361.575838 258.05132,363.138459 C256.604449,364.701079 254.897141,365.916451 252.929397,366.784574 C250.961652,367.652697 248.820283,368.086758 246.50529,368.086758 C242.106802,368.086758 238.489624,366.784574 235.653757,364.180205 C232.81789,361.575838 231.399955,358.248035 231.399955,354.196796 C231.399955,349.451059 232.991514,345.486633 236.174631,342.303517 C239.357747,339.120401 243.264298,337.528841 247.894287,337.528841 Z M651.397678,512.718831 C654.17567,508.320341 657.503472,504.732101 661.381088,501.954109 C665.258701,499.176117 669.917627,497.78712 675.357861,497.78712 C676.399609,497.78712 677.470293,497.844995 678.569915,497.960745 C679.669538,498.076496 680.566597,498.250119 681.261096,498.481619 L676.746858,523.136302 C675.473611,522.789053 674.25824,522.557553 673.100743,522.441803 C671.943246,522.326054 670.843623,522.268179 669.801877,522.268179 C665.750638,522.268179 662.336021,522.962677 659.558029,524.351673 C656.780037,525.740669 654.493981,527.447977 652.699861,529.473596 C650.905741,531.499216 649.57462,533.669523 648.706497,535.984516 C647.838374,538.299509 647.230689,540.325129 646.88344,542.061375 L639.070336,586.509253 L611.290413,586.509253 L623.617753,517.927566 C624.080752,515.728322 624.572689,512.892454 625.093563,509.419965 C625.614435,505.947473 625.990621,502.822232 626.222122,500.04424 L652.61305,500.04424 C652.61305,500.622987 652.555175,501.462173 652.439424,502.561796 C652.323674,503.661417 652.178988,504.818914 652.005363,506.034286 C651.831739,507.249657 651.658114,508.465029 651.484489,509.680401 C651.310865,510.895772 651.166178,511.908583 651.050428,512.718831 L651.397678,512.718831 Z" id="Combined-Shape" fill="#FFFFFF" fill-rule="nonzero"></path>
            <circle id="Oval" stroke="#272425" stroke-width="8.16326531" cx="399.917543" cy="399.917543" r="399.917543"></circle>
        </g>
    </g>
</svg>